<svg enable-background="new 0 0 60.5578 68.27457" viewBox="0 0 60.5578 68.27457" xmlns="http://www.w3.org/2000/svg"><path d="m31.34005 62.03423c6.42271 0 11.78429-1.28454 15.47037-3.79778-4.57968 3.63023-10.4439 5.80837-16.75492 5.80837-3.63024 0-7.03707-.72604-10.16465-2.01059z" fill="#0054c0"/><path d="m49.6029 55.72321c1.84304-2.17813 2.84834-4.97062 2.79249-8.3216 0-7.93066-5.69667-13.2364-13.29224-13.90659 4.69138-.55849 9.15935-4.18873 9.15935-11.05825 0-3.35098-1.06115-5.92007-2.96004-7.93066 7.14877 4.85893 11.84014 13.06884 11.84014 22.39573.05589 7.31633-2.8483 13.90661-7.5397 18.82137z" fill="#0054c0"/><path d="m16.81912 60.52629c-8.26576-4.69138-13.79489-13.51563-13.79489-23.62444 0-8.71255 4.07703-16.41982 10.4439-21.39045v42.6692s11.0024-2.01059 11.28165-8.65671c0-.4468 0-1.73133 0-1.73133v-34.90609h2.12229c5.75253 0 9.5503 3.01588 9.5503 10.49975 0 7.53971-4.46798 10.2205-9.15935 10.2205v.72605c6.64611 0 12.56619 3.40683 12.28694 12.11939-.2234 9.15936-13.62733 12.73375-22.73084 14.07413z" fill="#0054c0"/><g fill="#ff3f00"><path d="m47.25722 8.13924h6.98122v6.98122h-6.98122z"/><path d="m54.18259 4.22976h3.35098v3.35098h-3.35098z"/><path d="m55.52298 8.09426h2.01059v2.05556h-2.01059z"/><path d="m51.6135 4.22976h2.01059v2.01059h-2.01059z"/></g></svg>